<svg width="220" height="60" viewBox="0 30 225 60" fill="none" xmlns="http://www.w3.org/2000/svg">
<path d="M221.882 62.9993C221.882 60.428 220.298 58.3417 217.27 58.3417C214.528 58.3417 212.407 60.449 212.407 63.2793C212.407 66.1096 214.528 68.2191 217.392 68.2191C218.981 68.2191 220.403 67.6379 221.531 66.232L220.485 65.4302C219.948 66.2735 218.837 67.0563 217.392 67.0563C215.413 67.0563 213.908 65.5295 213.869 63.6402H221.862C221.882 63.4006 221.882 63.1785 221.882 62.9993ZM213.889 62.5585C214.013 60.9503 215.393 59.4828 217.27 59.4828C219.269 59.4828 220.381 60.7905 220.465 62.5585H213.889ZM201.485 63.1594C201.485 61.1914 202.805 59.4828 205.135 59.4828C207.298 59.4828 208.844 61.1914 208.844 63.1594C208.844 65.3298 207.298 66.8151 205.135 66.8151C202.805 66.8151 201.485 65.1286 201.485 63.1594ZM200.213 70.9109C201.344 72.0767 203.074 72.7975 204.847 72.7975C209.11 72.7975 210.078 69.9467 210.078 67.8973V58.5814H208.678V60.2074H208.639C207.876 59.0017 206.391 58.3414 204.992 58.3414C201.98 58.3414 200.007 60.5269 200.007 63.2001C200.007 65.9506 201.98 67.9775 204.992 67.9775C206.391 67.9775 207.895 67.2955 208.639 66.1328H208.678V67.8977C208.678 69.9277 207.668 71.5948 204.909 71.5948C203.444 71.5948 201.98 70.8341 201.219 69.8668L200.213 70.9109ZM193.969 60.6479V67.9772H195.368V63.1575C195.368 60.6471 196.705 59.6038 198.187 59.6038C198.56 59.6038 199.012 59.6643 199.179 59.7251L199.363 58.4421C199.075 58.3608 198.786 58.3414 198.436 58.3414C197.076 58.3414 195.88 59.1021 195.345 60.1854H195.306C195.306 59.7856 195.264 59.0823 195.222 58.5814H193.887C193.947 59.2234 193.969 60.1462 193.969 60.6479ZM190.096 63.28C190.096 65.3899 188.673 67.0559 186.428 67.0559C184.203 67.0559 182.78 65.3899 182.78 63.28C182.78 61.1701 184.203 59.4825 186.428 59.4825C188.675 59.4825 190.096 61.1705 190.096 63.28ZM191.579 63.28C191.579 60.4471 189.438 58.3414 186.428 58.3414C183.442 58.3414 181.299 60.4471 181.299 63.28C181.299 66.113 183.442 68.2187 186.428 68.2187C189.439 68.2187 191.579 66.1118 191.579 63.28ZM169.018 53.7625H167.166V67.9775H168.649V55.748H168.688L177.179 67.9775H179.031V53.7625H177.548V65.8722H177.509L169.018 53.7625ZM159.541 58.5814H156.821V55.9314H155.421V58.5814H153.425V59.7251H155.421V65.5896C155.421 67.658 156.863 68.1 157.892 68.1C158.455 68.107 159.014 68.0117 159.541 67.8189L159.478 66.6352C159.108 66.8159 158.655 66.9372 158.263 66.9372C157.42 66.9372 156.821 66.6162 156.821 65.2104V59.7251H159.541V58.5814ZM145.922 52.7998H144.525V67.9783H145.922V63.0373H145.984L150.887 67.9772H152.948L147.593 62.8803L152.453 58.5821H150.434L145.984 62.8194H145.922V52.7998ZM133.297 58.5814C133.36 59.2219 133.379 60.1466 133.379 60.6483V67.9775H134.776V63.1575C134.776 60.6471 136.22 59.4825 137.705 59.4825C139.724 59.4825 140.32 60.808 140.32 62.7757V67.9775H141.719V62.215C141.719 59.8849 140.507 58.3414 138.055 58.3414C136.692 58.3414 135.293 59.1021 134.755 60.1854H134.713C134.713 59.7856 134.674 59.0823 134.635 58.5814H133.297ZM130.614 67.9764C130.555 67.3343 130.532 66.4097 130.532 65.9083V58.5787H129.135V63.3987C129.135 65.9121 127.694 67.078 126.206 67.078C124.187 67.078 123.592 65.7509 123.592 63.7832V58.5814H122.193V64.3454C122.193 66.6755 123.405 68.2187 125.857 68.2187C127.219 68.2187 128.619 67.458 129.157 66.3739H129.199C129.199 66.7722 129.238 67.4747 129.281 67.9775L130.614 67.9764ZM113.081 55.004H115.597C117.842 55.004 119.163 55.8089 119.163 57.5574C119.163 59.244 117.904 60.1481 115.597 60.1481H113.081V55.004ZM111.598 67.9775H113.081V61.3717H115.679C118.648 61.3717 120.644 60.1081 120.644 57.5574C120.644 55.0067 118.687 53.7625 115.718 53.7625H111.6L111.598 67.9775ZM104.284 58.5825H101.564V55.9314H100.166V58.5814H98.1666V59.7251H100.166V65.5896C100.166 67.658 101.605 68.1 102.635 68.1C103.198 68.107 103.757 68.0117 104.284 67.8189L104.222 66.6352C103.85 66.8159 103.396 66.9372 103.006 66.9372C102.16 66.9372 101.562 66.6162 101.562 65.2104V59.7251H104.282L104.284 58.5825ZM87.9895 58.5825C88.0516 59.223 88.0715 60.1477 88.0715 60.6494V67.9787H89.4696V63.1575C89.4696 60.6471 90.9135 59.4825 92.3963 59.4825C94.4165 59.4825 95.0143 60.808 95.0143 62.7757V67.9775H96.4125V62.215C96.4125 59.8849 95.1981 58.3414 92.7444 58.3414C91.386 58.3414 89.9836 59.1021 89.4462 60.1854H89.4072C89.4072 59.7856 89.3651 59.0823 89.3253 58.5814L87.9895 58.5825ZM85.4944 58.643L84.8354 58.0215L83.477 59.3843C82.592 58.7229 81.4779 58.3425 80.1991 58.3425C77.2108 58.3425 75.0903 60.4482 75.0903 63.2812C75.0903 64.5672 75.5227 65.6915 76.2832 66.5553L74.9276 67.9197L75.5851 68.5424L76.9645 67.1784C77.7875 67.8189 78.9016 68.2198 80.1991 68.2198C83.2089 68.2198 85.3692 66.113 85.3692 63.2812C85.3692 61.975 84.8755 60.8297 84.1349 60.0058L85.4944 58.643ZM77.2131 65.6505C76.7605 65.0674 76.5131 64.1826 76.5131 63.28C76.5131 61.15 77.9339 59.444 80.2202 59.444C81.1688 59.444 82.0776 59.7251 82.6123 60.2458L77.2131 65.6505ZM83.2112 60.9294C83.7049 61.5121 83.9527 62.4162 83.9527 63.28C83.9527 65.4298 82.4698 67.1164 80.1812 67.1164C79.2325 67.1164 78.4294 66.8148 77.8117 66.334L83.2112 60.9294ZM68.7476 60.6483V67.9775H70.1473V63.1575C70.1473 60.6471 71.4846 59.6038 72.9691 59.6038C73.3394 59.6038 73.7932 59.6643 73.9587 59.7251L74.1424 58.4421C73.8556 58.3608 73.5669 58.3414 73.218 58.3414C71.8565 58.3414 70.662 59.1021 70.1263 60.1854H70.0853C70.0853 59.7856 70.0443 59.0823 70.003 58.5814H68.6657C68.7281 59.2234 68.7476 60.1466 68.7476 60.6483ZM64.8727 55.3057C63.6388 54.122 61.907 53.4015 59.6012 53.4015C55.2525 53.4015 52 56.5529 52 60.8693C52 65.1856 55.1924 68.3381 59.6031 68.3381C61.5796 68.3381 63.457 67.8779 65.0401 66.9559V60.5505H60.1557V61.8126H63.5553V66.1328C62.7101 66.6755 61.2682 67.0559 59.6199 67.0559C55.8691 67.0559 53.5605 64.1826 53.5605 60.87C53.5605 57.5574 55.8691 54.6621 59.6199 54.6621C61.4321 54.6621 62.833 55.2672 63.8437 56.3117L64.8727 55.3057Z" fill="#034A41"/>
<path d="M34.1371 45.8274C33.1551 44.8444 32.0735 43.9663 30.9098 43.207L30.9436 43.2302C39.2332 49.0377 41.4823 69.8027 20.0323 72.7429L20.0543 77.2632C17.2507 77.0217 12.5704 72.5139 10.1942 67.5867C10.9998 63.5491 16.3207 57.7732 19.963 57.8215L20.0543 62.4289C24.991 60.7716 30.03 55.8002 31.1258 52.526C30.6979 49.4572 23.7354 42.2588 20.0323 42.6395L20.2171 47.1708C5.93498 47.1271 -1.66994 65.2763 8.57581 76.437C16.3793 81.8599 27.1807 81.0916 34.136 74.1381C41.9547 66.3197 41.9547 53.6462 34.1371 45.8274Z" fill="#034A41"/>
<path d="M20.2153 47.1709L20.0305 42.6396C23.7337 42.2592 30.6962 49.4573 31.1241 52.5261C30.0282 55.8003 24.9892 60.7717 20.0526 62.4289L19.9613 57.8216C16.3189 57.7721 10.9981 63.5491 10.1925 67.5867C12.5686 72.514 17.2489 77.0198 20.0526 77.2633L20.0305 72.743C41.4805 69.8027 39.2314 49.0378 30.9419 43.2303L30.908 43.2071C23.1609 38.1574 12.7116 39.0832 5.89557 45.8978C1.99118 49.8034 0.0193983 54.9041 0 60.0056V60.0965C0 60.189 -9.28102e-08 60.281 0.00228206 60.3727V60.3898C0.00557851 60.5927 0.0116635 60.7945 0.0205386 60.9953C0.0235815 61.0608 0.0270051 61.1262 0.0304283 61.192C0.0304283 61.2011 0.0304283 61.2106 0.0304283 61.2198C0.303326 66.0928 2.36753 70.6932 5.82635 74.1366C6.67201 74.9832 7.59157 75.7526 8.57406 76.4356C-1.67168 65.2768 5.93323 47.1272 20.2153 47.1709Z" fill="#97E597"/>
</svg>
